<svg xmlns="http://www.w3.org/2000/svg" xmlns:xlink="http://www.w3.org/1999/xlink">
  <symbol id="icon-avatar-acc" viewBox="0 0 28 32">
  <title>avatar-acc</title>
  <path d="M13.602 17.239h-0.106c-1.941-0.033-3.511-0.716-4.664-2.021-2.551-2.875-2.127-7.804-2.080-8.275 0.166-3.558 1.862-5.247 3.253-6.036 1.385-0.788 2.829-0.908 3.564-0.908h0.113c1.338 0.026 2.537 0.344 3.564 0.934 1.378 0.788 3.048 2.478 3.213 6.009 0.046 0.47 0.47 5.4-2.080 8.275-1.159 1.305-2.73 1.988-4.671 2.021h-0.106zM8.524 7.077c-0.002 0.010-0.004 0.021-0.004 0.032-0.007 0.040-0.457 4.565 1.643 6.923 0.828 0.941 1.948 1.405 3.405 1.418h0.066c1.464-0.013 2.577-0.477 3.412-1.418 2.107-2.372 1.643-6.877 1.636-6.923-0.007-0.013-0.007-0.033-0.007-0.053-0.205-4.492-3.246-5.221-5.035-5.26h-0.079c-1.444 0-4.817 0.51-5.035 5.26 0 0.006-0.001 0.013-0.003 0.021z"></path>
  <path d="M27.217 25.415c0-0.007 0-0.013 0-0.020 0-0.053-0.007-0.106-0.007-0.166-0.040-1.312-0.126-4.379-3.001-5.36-0.020-0.007-0.046-0.013-0.066-0.020-2.988-0.762-5.472-2.484-5.499-2.504-0.404-0.285-0.961-0.185-1.246 0.219s-0.186 0.961 0.219 1.246c0.113 0.079 2.749 1.915 6.049 2.763 1.544 0.55 1.716 2.2 1.762 3.71 0 0.060 0 0.113 0.007 0.166 0.007 0.596-0.033 1.517-0.139 2.047-1.073 0.61-5.28 2.716-11.68 2.716-6.374 0-10.607-2.114-11.687-2.723-0.106-0.53-0.152-1.451-0.139-2.047 0-0.053 0.007-0.106 0.007-0.166 0.046-1.511 0.219-3.16 1.762-3.71 3.299-0.848 5.936-2.69 6.049-2.763 0.404-0.285 0.504-0.841 0.219-1.245s-0.841-0.504-1.246-0.219c-0.027 0.020-2.498 1.742-5.499 2.504-0.026 0.007-0.046 0.013-0.066 0.020-2.875 0.987-2.962 4.055-3.001 5.36 0 0.060 0 0.113-0.007 0.166 0 0.007 0 0.013 0 0.020-0.007 0.344-0.013 2.113 0.338 3.001 0.066 0.172 0.186 0.318 0.344 0.417 0.199 0.132 4.962 3.167 12.933 3.167s12.734-3.041 12.932-3.167c0.152-0.099 0.278-0.245 0.344-0.417 0.331-0.881 0.325-2.65 0.318-2.995z"></path>
  </symbol>
</svg>
