<svg aria-hidden="true" style="position: absolute; width: 0; height: 0; overflow: hidden;" version="1.1" xmlns="http://www.w3.org/2000/svg" xmlns:xlink="http://www.w3.org/1999/xlink">
<defs>
<symbol id="icon-facebook" viewBox="0 0 33 32">
<title>facebook</title>
<path d="M0.454 16c0-8.822 7.178-16 16-16s16 7.178 16 16c0 8.822-7.178 16-16 16s-16-7.178-16-16zM17.83 16.563h2.603l0.337-3.279h-2.939v-1.927c0-0.724 0.48-0.893 0.818-0.893h2.075v-3.183l-2.858-0.011c-3.171 0-3.893 2.374-3.893 3.893v2.121h-1.834v3.279h1.834v9.278h3.857v-9.278z"></path>
</symbol>
<symbol id="icon-instagram" viewBox="0 0 32 32">
<title>instagram</title>
<path d="M15.888 19.069c1.753 0 3.182-1.427 3.182-3.181 0-0.692-0.227-1.332-0.602-1.854-0.578-0.801-1.517-1.327-2.579-1.327s-2.001 0.525-2.58 1.326c-0.376 0.522-0.601 1.162-0.602 1.854-0.002 1.754 1.426 3.181 3.18 3.181z"></path>
<path d="M22.834 11.997v-3.063l-3.064 0.010 0.010 3.064 3.053-0.010z"></path>
<path d="M0 15.889c0-8.761 7.128-15.889 15.889-15.889s15.889 7.128 15.889 15.889c0 8.76-7.128 15.889-15.889 15.889s-15.889-7.128-15.889-15.889zM24.925 21.433v-11.087c0-1.926-1.567-3.492-3.493-3.492h-11.087c-1.926 0-3.492 1.566-3.492 3.492v11.087c0 1.927 1.566 3.493 3.492 3.493h11.087c1.926 0 3.492-1.566 3.492-3.493z"></path>
<path d="M20.831 15.889c0 2.724-2.217 4.943-4.943 4.943s-4.942-2.218-4.942-4.943c0-0.655 0.131-1.282 0.364-1.854h-2.698v7.398c0 0.956 0.776 1.731 1.732 1.731h11.087c0.954 0 1.732-0.774 1.732-1.731v-7.398h-2.699c0.235 0.572 0.367 1.199 0.367 1.854z"></path>
</symbol>
<symbol id="icon-vk" viewBox="0 0 33 32">
<title>vk</title>
<path d="M0.908 15.959c0-8.814 7.145-15.959 15.959-15.959s15.959 7.145 15.959 15.959c0 8.814-7.145 15.959-15.959 15.959s-15.959-7.145-15.959-15.959zM25.562 18.259c-0.201-0.19-0.402-0.38-0.6-0.574-0.671-0.655-0.714-1.035-0.173-1.789 0.313-0.44 0.64-0.87 0.966-1.301 0.286-0.377 0.573-0.755 0.85-1.139 0.020-0.027 0.039-0.054 0.059-0.081 0.535-0.74 1.073-1.484 1.355-2.37 0.185-0.585 0.021-0.843-0.578-0.945-0.104-0.018-0.21-0.019-0.315-0.019l-3.557-0.004c-0.438-0.007-0.68 0.184-0.835 0.573-0.209 0.525-0.424 1.049-0.674 1.556-0.565 1.148-1.196 2.258-2.082 3.198-0.013 0.013-0.025 0.027-0.038 0.040-0.186 0.198-0.394 0.421-0.699 0.32-0.408-0.149-0.528-0.821-0.521-1.048l-0.003-4.105c-0.079-0.586-0.21-0.848-0.792-0.962l-3.694 0.001c-0.493 0-0.74 0.191-1.004 0.499-0.152 0.178-0.197 0.294 0.115 0.353 0.613 0.116 0.959 0.513 1.050 1.128 0.147 0.983 0.137 1.969 0.052 2.955-0.025 0.288-0.074 0.575-0.188 0.844-0.179 0.423-0.467 0.509-0.846 0.249-0.343-0.235-0.584-0.568-0.82-0.901-0.886-1.252-1.593-2.602-2.169-4.021-0.167-0.41-0.454-0.658-0.889-0.665-1.067-0.017-2.134-0.020-3.201 0.001-0.642 0.012-0.834 0.324-0.572 0.906 1.162 2.585 2.455 5.098 4.144 7.388 0.867 1.175 1.863 2.212 3.148 2.947 1.458 0.833 3.026 1.084 4.679 1.007 0.773-0.036 1.006-0.238 1.042-1.009 0.025-0.527 0.084-1.052 0.344-1.526 0.255-0.466 0.643-0.555 1.088-0.264 0.223 0.145 0.411 0.328 0.589 0.524 0.144 0.157 0.287 0.317 0.429 0.476 0.288 0.322 0.576 0.644 0.878 0.952 0.567 0.577 1.239 0.918 2.083 0.848l3.27 0.001c0.526-0.035 0.8-0.68 0.497-1.268-0.212-0.412-0.491-0.779-0.787-1.134-0.49-0.588-1.044-1.113-1.599-1.638z"></path>
</symbol>
<symbol id="icon-youtube" viewBox="0 0 32 32">
<title>youtube</title>
<path d="M8.384 17.137h1.265v6.848h1.197v-6.848h1.289v-1.122h-3.751v1.122z"></path>
<path d="M17.394 18.618c0.347-0.428 0.716-0.644 1.112-0.644 0.428 0 0.716 0.225 0.86 0.671 0.072 0.239 0.109 0.631 0.109 1.193v2.365c0 0.549-0.037 0.945-0.109 1.197-0.144 0.442-0.432 0.667-0.86 0.667-0.383 0-0.752-0.213-1.112-0.657v0.575h-1.076v-7.97h1.076v2.603zM17.93 23.089c0.311 0 0.468-0.264 0.468-0.801v-2.535c0-0.536-0.158-0.811-0.468-0.811-0.177 0-0.356 0.084-0.536 0.262v3.619c0.18 0.18 0.36 0.265 0.536 0.265z"></path>
<path d="M14.31 22.585c-0.239 0.337-0.464 0.504-0.681 0.504-0.144 0-0.226-0.085-0.252-0.252-0.010-0.035-0.010-0.166-0.010-0.418v-4.372h-1.076v4.695c0 0.42 0.036 0.703 0.095 0.883 0.108 0.301 0.347 0.442 0.693 0.442 0.396 0 0.802-0.239 1.23-0.729v0.648h1.077v-5.939h-1.077v4.538z"></path>
<path d="M15.234 12.56c0.35 0 0.519-0.278 0.519-0.833v-2.524c0-0.555-0.168-0.832-0.519-0.832s-0.519 0.277-0.519 0.832v2.524c0 0.555 0.168 0.833 0.519 0.833z"></path>
<path d="M15.959 0c8.814 0 15.959 7.145 15.959 15.959s-7.145 15.959-15.959 15.959c-8.814 0-15.959-7.145-15.959-15.959s7.145-15.959 15.959-15.959zM17.734 7.465v4.746c0 0.424 0.036 0.711 0.096 0.892 0.109 0.304 0.351 0.446 0.701 0.446 0.397 0 0.809-0.241 1.242-0.737v0.654h1.087v-6.001h-1.087v4.587c-0.241 0.341-0.47 0.509-0.687 0.509-0.146 0-0.231-0.086-0.255-0.255-0.013-0.036-0.013-0.168-0.013-0.423v-4.419h-1.084zM13.967 8.008c-0.231 0.303-0.34 0.772-0.34 1.414v2.102c0 0.638 0.109 1.111 0.34 1.411 0.301 0.409 0.724 0.614 1.266 0.614 0.545 0 0.968-0.205 1.268-0.614 0.228-0.3 0.337-0.773 0.337-1.411v-2.102c0-0.642-0.109-1.111-0.337-1.414-0.301-0.41-0.724-0.615-1.268-0.615-0.542 0-0.966 0.205-1.266 0.615zM10.719 5.413h-1.269c0.126 0.369 0.254 0.739 0.382 1.109 0.131 0.378 0.262 0.757 0.391 1.135 0.387 1.123 0.628 1.97 0.738 2.548v3.262h1.206v-3.262l1.451-4.792h-1.22l-0.823 3.162-0.856-3.162zM22.626 26.259c0.932-0.104 1.706-0.803 1.925-1.75 0.311-1.348 0.312-2.821 0.312-4.209v-0.026c0-1.381 0-2.843-0.308-4.183-0.218-0.947-0.993-1.645-1.925-1.75-2.208-0.247-4.443-0.248-6.667-0.247-2.225-0.001-4.46 0-6.668 0.247-0.932 0.104-1.706 0.803-1.924 1.75-0.31 1.349-0.314 2.821-0.314 4.209s0 2.861 0.311 4.209c0.217 0.947 0.992 1.645 1.924 1.75 2.208 0.247 4.443 0.248 6.667 0.247 2.226 0.001 4.46 0 6.668-0.247z"></path>
<path d="M20.644 18.583c0.311-0.407 0.738-0.609 1.289-0.609 0.54 0 0.968 0.203 1.269 0.608 0.226 0.3 0.333 0.765 0.333 1.399v1.23h-2.153v1.053c0 0.549 0.181 0.823 0.551 0.823 0.265 0 0.42-0.144 0.481-0.431 0.009-0.058 0.024-0.298 0.024-0.729h1.097v0.156c0 0.347-0.013 0.586-0.023 0.694-0.036 0.238-0.121 0.454-0.251 0.645-0.298 0.431-0.739 0.644-1.301 0.644s-0.992-0.203-1.302-0.608c-0.229-0.297-0.346-0.765-0.346-1.396v-2.080c0-0.634 0.104-1.099 0.332-1.399zM21.383 20.316h1.076v-0.549c0-0.549-0.18-0.824-0.536-0.824-0.36 0-0.54 0.275-0.54 0.824v0.549z"></path>
</symbol>
<symbol id="icon-compare" viewBox="0 0 28 32">
<title>compare</title>
<path d="M27.491 7.894c0.351 0.141 0.539 0.484 0.539 0.885 0 0.007-0.016 0.014-0.032 0.021s-0.032 0.014-0.032 0.021c0 0.007-0.028 0.013-0.057 0.020s-0.058 0.014-0.058 0.021v13.527c0 2.201-1.54 3.879-3.647 3.879h-2.085v2.087c0 2.074-1.648 3.644-3.882 3.644h-13.961c-2.18 0-4.128-1.499-4.128-3.644v-19.105c0-2.027 1.765-3.52 4.128-3.52h1.604v-2.447c0-1.942 1.78-3.285 4.362-3.285h8.424c0.239 0 0.468 0.18 0.644 0.341l8.18 7.553zM19.253 3.183v4.458h5.325l-5.325-4.458zM18.237 30.090c1.046 0 1.971-0.605 1.971-1.734h0v-12.595h-7.403c-0.527 0-1.194-0.246-1.194-0.773v-7.346h-7.335c-0.739 0-2.217 0.367-2.217 1.609v19.105c0 1.074 1.108 1.734 2.217 1.734h13.961zM19.118 13.851l-5.596-4.718v4.718h5.596zM22.119 24.358h2.085c1.053 0 1.736-0.823 1.736-1.969v-12.837h-7.403c-0.527 0-1.194-0.246-1.194-0.773v-6.869h-7.1c-1.010 0-2.452 0.389-2.452 1.374v2.447h4.91c0.009 0 0.015 0.024 0.020 0.048s0.011 0.047 0.020 0.048c0.009-0 0.013 0.021 0.018 0.043s0.009 0.043 0.018 0.043c0.378 0 0.672 0.222 0.827 0.541l8.325 7.67c0.192 0.175 0.191 0.42 0.191 0.679 0 0.008 0 0.017 0 0.025v9.53z"></path>
</symbol>
<symbol id="icon-avatar" viewBox="0 0 28 32">
<title>avatar</title>
<path d="M13.602 17.239h-0.106c-1.941-0.033-3.511-0.716-4.664-2.021-2.551-2.875-2.127-7.804-2.080-8.275 0.166-3.558 1.862-5.247 3.253-6.036 1.385-0.788 2.829-0.908 3.564-0.908h0.113c1.338 0.026 2.537 0.344 3.564 0.934 1.378 0.788 3.048 2.478 3.213 6.009 0.046 0.47 0.47 5.4-2.080 8.275-1.159 1.305-2.73 1.988-4.671 2.021h-0.106zM8.524 7.077c-0.002 0.010-0.004 0.021-0.004 0.032-0.007 0.040-0.457 4.565 1.643 6.923 0.828 0.941 1.948 1.405 3.405 1.418h0.066c1.464-0.013 2.577-0.477 3.412-1.418 2.107-2.372 1.643-6.877 1.636-6.923-0.007-0.013-0.007-0.033-0.007-0.053-0.205-4.492-3.246-5.221-5.035-5.26h-0.079c-1.444 0-4.817 0.51-5.035 5.26 0 0.006-0.001 0.013-0.003 0.021z"></path>
<path d="M27.216 25.415c0-0.007 0-0.013 0-0.020 0-0.053-0.007-0.106-0.007-0.166-0.040-1.312-0.126-4.379-3.001-5.36-0.020-0.007-0.046-0.013-0.066-0.020-2.988-0.762-5.473-2.484-5.499-2.504-0.404-0.285-0.961-0.185-1.246 0.219s-0.185 0.961 0.219 1.246c0.113 0.079 2.75 1.915 6.049 2.763 1.544 0.55 1.716 2.2 1.762 3.71 0 0.060 0 0.113 0.007 0.166 0.007 0.596-0.033 1.517-0.139 2.047-1.073 0.61-5.28 2.716-11.68 2.716-6.373 0-10.607-2.114-11.687-2.723-0.106-0.53-0.152-1.451-0.139-2.047 0-0.053 0.007-0.106 0.007-0.166 0.046-1.511 0.219-3.16 1.762-3.71 3.299-0.848 5.936-2.69 6.049-2.763 0.404-0.285 0.504-0.841 0.219-1.245s-0.841-0.504-1.246-0.219c-0.027 0.020-2.498 1.742-5.499 2.504-0.026 0.007-0.046 0.013-0.066 0.020-2.875 0.987-2.962 4.055-3.001 5.36 0 0.060 0 0.113-0.007 0.166 0 0.007 0 0.013 0 0.020-0.007 0.344-0.013 2.113 0.338 3.001 0.066 0.172 0.186 0.318 0.344 0.417 0.199 0.132 4.962 3.167 12.932 3.167s12.734-3.041 12.932-3.167c0.152-0.099 0.278-0.245 0.345-0.417 0.331-0.881 0.325-2.65 0.318-2.995z"></path>
</symbol>
<symbol id="icon-cart" viewBox="0 0 35 32">
<title>cart</title>
<path d="M11.361 28.718c0-1.663 1.353-3.015 3.015-3.015s3.015 1.353 3.015 3.015c0 1.663-1.353 3.015-3.015 3.015s-3.015-1.353-3.015-3.015zM13.045 28.718c0 0.734 0.597 1.332 1.332 1.332s1.332-0.597 1.332-1.332c0-0.734-0.598-1.332-1.332-1.332s-1.332 0.597-1.332 1.332z"></path>
<path d="M21.938 28.718c0-1.663 1.353-3.015 3.015-3.015s3.015 1.353 3.015 3.015c0 1.663-1.353 3.015-3.015 3.015s-3.015-1.353-3.015-3.015zM23.621 28.718c0 0.734 0.597 1.332 1.332 1.332s1.332-0.597 1.332-1.332c0-0.734-0.597-1.332-1.332-1.332s-1.332 0.597-1.332 1.332z"></path>
<path d="M25.695 9.827h-12.063c-0.465 0-0.842 0.377-0.842 0.842s0.377 0.842 0.842 0.842h12.063c0.465 0 0.842-0.377 0.842-0.842s-0.377-0.842-0.842-0.842z"></path>
<path d="M25.039 14.199h-10.75c-0.465 0-0.842 0.377-0.842 0.842s0.377 0.842 0.842 0.842h10.75c0.465 0 0.842-0.377 0.842-0.842s-0.377-0.842-0.842-0.842z"></path>
<path d="M32.602 5.457c0.508 0 0.984 0.226 1.305 0.62s0.446 0.905 0.344 1.403l-2.355 11.429c-0.16 0.779-0.854 1.344-1.649 1.344h-20.819l0.495 2.405h20.167c0.465 0 0.842 0.377 0.842 0.842s-0.377 0.842-0.842 0.842h-20.167c-0.795 0-1.489-0.565-1.649-1.344l-4.073-19.772-3.695-1.604c-0.426-0.185-0.622-0.681-0.437-1.107s0.681-0.622 1.107-0.437l3.695 1.604c0.502 0.218 0.868 0.668 0.979 1.205l0.53 2.571h26.221zM9.082 18.569h21.166l2.354-11.429-25.874-0 2.355 11.429z"></path>
</symbol>
<symbol id="icon-favorites" viewBox="0 0 25 23">
<title>favorites</title>
<path d="M18.3594 0C20.2323 0 21.9429 0.769548 23.176 2.16693C24.3522 3.49998 25 5.28526 25 7.19391C25 9.27155 24.1878 11.2039 22.4441 13.2752C20.8856 15.1265 18.6436 17.0346 16.0475 19.2441L16.0384 19.2518C15.0736 20.073 14.0761 20.922 13.0144 21.8498L12.9824 21.8778C12.8443 21.9984 12.6722 22.0588 12.5 22.0588C12.3278 22.0588 12.1557 21.9985 12.0176 21.8778L11.9856 21.8498C10.9206 20.9191 9.92029 20.0677 8.95295 19.2444L8.95264 19.2442C6.3564 17.0346 4.11436 15.1264 2.55591 13.2752C0.812158 11.2039 0 9.27155 0 7.19391C0 5.28526 0.647803 3.49998 1.82397 2.16698C3.05708 0.769597 4.76768 0 6.64062 0C9.27481 0 10.9425 1.57128 11.8777 2.88946C12.1204 3.23152 12.3267 3.5745 12.5 3.89724C12.6733 3.5745 12.8797 3.23152 13.1223 2.88946C14.0575 1.57128 15.7252 0 18.3594 0ZM12.5 20.3566C13.405 19.5709 14.2633 18.8404 15.0973 18.1306C20.1785 13.8062 23.5352 10.9493 23.5352 7.19391C23.5352 5.64165 23.0173 4.19989 22.077 3.13428C21.126 2.05657 19.8057 1.46302 18.3594 1.46302C16.3511 1.46302 15.0529 2.69869 14.3176 3.73524C13.658 4.66498 13.3138 5.60219 13.1964 5.96195C13.0982 6.26309 12.8171 6.46689 12.5 6.46689C12.1829 6.46689 11.9018 6.26309 11.8036 5.96195C11.6862 5.60219 11.342 4.66498 10.6824 3.73528C9.94707 2.69869 8.64888 1.46302 6.64062 1.46302C5.19429 1.46302 3.87402 2.05657 2.92295 3.13428C1.98267 4.19989 1.46484 5.64165 1.46484 7.19391C1.46484 10.9493 4.82153 13.8062 9.90254 18.1305C10.7367 18.8404 11.595 19.571 12.5 20.3566Z"/>
</symbol>
</defs>
</svg>
