<svg xmlns="http://www.w3.org/2000/svg" xmlns:xlink="http://www.w3.org/1999/xlink">

  <symbol viewBox="0 0 27 27" id="close">
    <g fill="none" fill-rule="evenodd" transform="translate(1 1)">
      <path fill="currentColor" d="M18.287 7.798l-1.085-1.085-4.34 4.34-4.34-4.34L7.44 7.798l4.34 4.34-4.34 4.34 1.085 1.084 4.34-4.34 4.34 4.34 1.084-1.085-4.34-4.34"/>
      <circle cx="12.892" cy="12.108" r="12.108" stroke="currentColor" stroke-width="2"/>
    </g>
  </symbol>

  <symbol viewBox="0 0 15 13" id="mail">
    <path fill="currentColor" fill-rule="evenodd" d="M14.105 1.08L7.512 7.83.902 1.08V1C.903.934.927.9.985.9h13.04c.057 0 .08.033.08.097v.08zm0 10.31c0 .057-.024.08-.08.08H.984c-.06 0-.082-.023-.082-.08V2.365L7.18 8.78c.087.09.194.13.316.13h.016c.14 0 .245-.04.334-.13l6.26-6.415v9.025zM14.025 0H.984a.936.936 0 0 0-.7.29A.996.996 0 0 0 0 1v10.39c0 .27.096.506.284.7a.95.95 0 0 0 .7.283h13.04a.924.924 0 0 0 .69-.284.97.97 0 0 0 .286-.7V1c0-.553-.423-1-.976-1z"/>
  </symbol>

  <symbol viewBox="0 0 32 45" id="map-pin">
    <g fill="currentColor" fill-rule="evenodd">
      <path fill="currentColor" d="M27.356 4.66C24.33 1.723 20.306.103 16.026.103c-4.284 0-8.306 1.62-11.334 4.555-5.598 5.437-6.295 15.664-1.505 21.862l12.84 17.997L28.84 26.545c4.812-6.222 4.114-16.45-1.484-21.887"/>
      <path fill="#FFF" stroke="#4FA7AC" stroke-width=".3" d="M10.323 16.222c0 3.275 2.623 5.94 5.85 5.94 3.223 0 5.847-2.665 5.847-5.94 0-3.273-2.624-5.936-5.847-5.936-3.227 0-5.85 2.663-5.85 5.936z"/>
    </g>
  </symbol>

  <symbol viewBox="0 0 19 19" id="phone">
    <path fill="none" stroke="currentColor" d="M1.925 6.736c2.347 3.935 6.405 7.993 10.343 10.34.038.024.077.047.114.068l1.377.81a.32.32 0 0 0 .289.021L17.14 16.7a.317.317 0 0 0 .17-.16l.656-1.384a.328.328 0 0 0-.114-.412l-4.15-2.765a.325.325 0 0 0-.37.004l-2.095 1.49c-1.004-.597-2.122-1.493-3.17-2.543-1.05-1.048-1.947-2.166-2.544-3.17l1.49-2.095a.327.327 0 0 0 .005-.37l-2.405-3.61-.36-.54a.326.326 0 0 0-.41-.114l-1.384.657a.328.328 0 0 0-.162.17L1.025 4.95a.322.322 0 0 0 .02.29l.81 1.377.07.12z"/>
  </symbol>

  <symbol viewBox="0 0 16 21" id="pin">
    <g fill-rule="evenodd" stroke="currentColor" stroke-width=".3">
      <path d="M8.35 10.095c-1.047 0-1.898-.845-1.898-1.885s.85-1.885 1.9-1.885c1.046 0 1.898.846 1.898 1.885 0 1.04-.852 1.885-1.9 1.885m0-4.524c-1.465 0-2.658 1.185-2.658 2.64s1.193 2.64 2.66 2.64c1.464 0 2.657-1.185 2.657-2.64S9.815 5.57 8.35 5.57"/>
      <path d="M13.494 12.377l-5.21 7.143-5.22-7.153c-1.973-2.5-1.69-6.605.607-8.786C4.905 2.413 6.54 1.77 8.286 1.77c1.74 0 3.38.644 4.612 1.813 2.297 2.182 2.58 6.287.597 8.797m-.06-9.306C12.06 1.77 10.231 1.05 8.285 1.05c-1.947 0-3.775.72-5.15 2.025C.587 5.49.27 10.034 2.447 12.79l5.837 7.998 5.825-7.988c2.186-2.765 1.87-7.31-.675-9.727"/>
    </g>
  </symbol>

  <symbol viewBox="0 0 15 17" id="fax">
    <path fill="currentColor" d="M14.4 3.7H14V.6c0-.3-.2-.6-.5-.6H6.1c-.3 0-.6.3-.6.6v3.1h-.7v-.4c0-.3-.3-.6-.6-.6H.6c-.3.1-.6.3-.6.6v11.2c0 .3.3.6.6.6h1.3v.4c0 .8.7 1.5 1.6 1.5H7c.9 0 1.6-.7 1.6-1.6v-1.2h5.9c.3 0 .6-.3.6-.6V4.3c-.1-.3-.4-.6-.7-.6zM6.7 1.1H13v2.6H6.7V1.1zM1.1 3.9h2.6V14H1.1V3.9zm6.3 11.5c0 .2-.2.5-.4.5H3.4c-.2 0-.4-.2-.4-.4v-.4h1.3c.3 0 .6-.3.6-.6v-.4h2.6v1.3zm6.5-2.3H4.8V4.8h9.1v8.3z"/>
    <path fill="currentColor" d="M11.6 2H7.9c-.3 0-.5.2-.5.4s.3.4.6.4h3.7c.3 0 .6-.2.6-.4-.1-.2-.4-.4-.7-.4zM8.8 10.1H7.6c-.1 0-.2.2-.2.4s.1.4.2.4h1.2c.1 0 .2-.2.2-.4s-.1-.4-.2-.4zM12 10.1h-1.2c-.1 0-.2.2-.2.4s.1.4.2.4H12c.1 0 .2-.2.2-.4s-.1-.4-.2-.4zM8.8 8.6H7.6c-.1 0-.2.2-.2.4s.1.4.2.4h1.2c.1-.1.2-.2.2-.4s-.1-.4-.2-.4zM12 8.6h-1.2c-.1 0-.2.2-.2.4s.1.4.2.4H12c.1 0 .2-.2.2-.4s-.1-.4-.2-.4zM8.8 7.1H7.6c-.1 0-.2.2-.2.4s.1.4.2.4h1.2c.1-.1.2-.3.2-.5s-.1-.3-.2-.3zM12 7.1h-1.2c-.1 0-.2.2-.2.4s.1.4.2.4H12c.1 0 .2-.2.2-.4 0-.3-.1-.4-.2-.4z"/>
  </symbol>

  <symbol viewBox="0 0 17 17" id="checkbox-checked">
    <path fill="none" fill-rule="evenodd" stroke="currentColor" stroke-width="2" d="M1 8.788c.087.116 5.594 6.238 5.594 6.238L15.378 1"/>
  </symbol>

  <symbol viewBox="0 0 30 40" id="blank"><g stroke-width="2" stroke="currentColor" fill="none" fill-rule="evenodd" stroke-linecap="round" stroke-linejoin="round"><path d="M19 1l10 10v28H1V1zM7 11h6m-6 6h16M7 23h16M7 29h16"/><path d="M19 2v9h9"/></g></symbol><symbol viewBox="0 0 20 22" id="calendar"><path d="M13 10.15a4.85 4.85 0 1 0 0 9.7 4.85 4.85 0 1 0 0-9.7M2 20a2 2 0 0 1-2-2V4c0-1.11.89-2 2-2h1V0h2v2h8V0h2v2h1a2 2 0 0 1 2 2v6.1c1.24 1.26 2 2.99 2 4.9a7 7 0 0 1-7 7c-1.91 0-3.64-.76-4.9-2H2M16 7H2v11h4.67c-.43-.91-.67-1.93-.67-3a7 7 0 0 1 7-7c1.07 0 2.09.24 3 .67V7m-4 5h1.5v2.82l2.44 1.411-.75 1.299L12 15.691V12" fill="currentColor" fill-rule="evenodd"/></symbol><symbol viewBox="0 0 36 40" id="note"><g stroke-width="2" stroke="currentColor" fill="none" fill-rule="evenodd"><path d="M29 17v20.009c0 1.1-.9 1.991-1.991 1.991H2.99A2 2 0 0 1 1 36.997V3.003C1 1.897 1.9 1 2.991 1H27.01A1.99 1.99 0 0 1 29 2.998V9" stroke-linejoin="round"/><path d="M25 1v38.013"/><path stroke-linecap="round" stroke-linejoin="round" d="M25 9h10l-3 4 3 4H25z"/></g></symbol><symbol viewBox="0 0 40 40" id="pen"><path d="M13 27v-5L32.59 2.41a1.999 1.999 0 0 1 2.83.01l2.16 2.16c.785.785.792 2.048.01 2.83L18 27h-5zM30 5l5 5M8 39h28a3 3 0 0 0 0-6H4a3 3 0 0 1 0-6h5" stroke-width="2" stroke="currentColor" fill="none" fill-rule="evenodd" stroke-linecap="round" stroke-linejoin="round"/></symbol><symbol viewBox="0 0 24 24" id="search"><path d="M1.431 10.233c0-4.853 3.949-8.796 8.797-8.796 4.853 0 8.796 3.948 8.796 8.796 0 4.848-3.943 8.802-8.796 8.802-4.848 0-8.797-3.949-8.797-8.802m22.356 12.543l-5.832-5.832a10.192 10.192 0 0 0 2.511-6.71C20.466 4.586 15.874 0 10.233 0 4.587 0 0 4.592 0 10.233c0 5.641 4.592 10.233 10.233 10.233 2.565 0 4.912-.947 6.71-2.511l5.833 5.832a.724.724 0 0 0 .506.213.72.72 0 0 0 .506-1.224" fill="currentColor" fill-rule="evenodd"/></symbol><symbol viewBox="0 0 42 30" id="video-camera"><path d="M40.72 6.168a2.78 2.78 0 0 0-2.658-.181l-5.64 2.585v-.096a2.431 2.431 0 0 0-2.438-2.42h-3.458V2.398c0-1.21-.991-2.195-2.21-2.195H.736A.734.734 0 0 0 0 .934c0 .405.33.732.737.732h23.579c.406 0 .737.328.737.732v3.658H2.437A2.431 2.431 0 0 0 0 8.476v18.576a2.431 2.431 0 0 0 2.437 2.42h27.547a2.43 2.43 0 0 0 2.437-2.42v-.096l5.64 2.585a2.777 2.777 0 0 0 2.66-.18A2.738 2.738 0 0 0 42 27.04V8.49a2.74 2.74 0 0 0-1.28-2.322zm-9.773 20.884a.96.96 0 0 1-.963.956H2.437a.96.96 0 0 1-.963-.956V8.476a.96.96 0 0 1 .963-.956h27.547a.96.96 0 0 1 .963.956v18.576zm9.58-.012c0 .449-.22.846-.6 1.088a1.28 1.28 0 0 1-1.247.084l-6.259-2.867V10.183l6.258-2.867c.411-.19.866-.158 1.247.084.38.242.6.64.6 1.09v18.55z" fill="currentColor"/></symbol>
  
  <symbol viewBox="0 0 312 312" id="link-checkbox">
	<g id="Layer_copy">
		<g>
			<path d="M252,312H8c-4.4,0-8-3.6-8-8V60c0-4.4,3.6-8,8-8h171c4.4,0,8,3.6,8,8s-3.6,8-8,8H16v228h228V133c0-4.4,3.6-8,8-8
				s8,3.6,8,8v171C260,308.4,256.4,312,252,312z"/>
		</g>
		<path d="M304,0H187.7c-4.4,0-8,3.6-8,8s3.6,8,8,8h96.7L141.1,159.4c-0.3,0.3-0.6,0.7-0.8,1c-3.2-1.6-6.8-2.4-10.3-2.4
			c-6,0-12,2.3-16.6,6.9c-9.2,9.2-9.2,24.1,0,33.2c4.6,4.6,10.6,6.9,16.6,6.9s12-2.3,16.6-6.9c7.2-7.2,8.7-17.8,4.7-26.5
			c0.4-0.3,0.8-0.6,1.2-1L296,27v97c0,4.4,3.6,8,8,8s8-3.6,8-8V8C312,3.6,308.4,0,304,0z M135.3,186.8c-1.9,1.9-4.1,2.2-5.3,2.2
			s-3.4-0.3-5.3-2.2c-1.9-1.9-2.2-4.1-2.2-5.3s0.3-3.4,2.2-5.3c1.9-1.9,4.1-2.2,5.3-2.2s3.4,0.3,5.3,2.2c1.9,1.9,2.2,4.1,2.2,5.3
			S137.2,184.9,135.3,186.8z"/>
	</g>
  </symbol>

  <symbol viewBox="0 0 30 30" id="icon-power">
    <g fill="currentColor" fill-rule="evenodd"><path d="M9.476 23.793H5.524A.52.52 0 0 0 5 24.31a.52.52 0 0 0 .524.518h3.952A.52.52 0 0 0 10 24.31a.52.52 0 0 0-.524-.517m8 0h-3.952a.52.52 0 0 0-.524.517.52.52 0 0 0 .524.518h3.952A.52.52 0 0 0 18 24.31a.52.52 0 0 0-.524-.517m7 0h-3.952a.52.52 0 0 0-.524.517.52.52 0 0 0 .524.518h3.952A.52.52 0 0 0 25 24.31a.52.52 0 0 0-.524-.517M3.76 3.343h1.154c.368 0 .666.284.666.633v.677c0 .287.245.52.547.52a.534.534 0 0 0 .547-.52v-.677c0-.922-.79-1.671-1.76-1.671H3.76c-.367 0-.666-.284-.666-.633 0-.35.3-.633.666-.633h22.694A.534.534 0 0 0 27 .519.534.534 0 0 0 26.453 0H3.76C2.79 0 2 .75 2 1.672c0 .921.79 1.671 1.76 1.671"/><path d="M12.455 5.172A.553.553 0 0 0 13 4.61v-.732c0-.998-.786-1.809-1.753-1.809H8.753C7.786 2.069 7 2.88 7 3.878v.732c0 .31.244.562.545.562.3 0 .545-.251.545-.562v-.732c0-.378.297-.685.663-.685h2.494c.366 0 .663.307.663.685v.732c0 .31.244.562.545.562M14 3.878v.732c0 .31.25.562.558.562a.56.56 0 0 0 .557-.562v-.732c0-.378.305-.685.68-.685h13.647A.56.56 0 0 0 30 2.631a.56.56 0 0 0-.558-.562H15.795c-.99 0-1.795.811-1.795 1.809m11 3.881a.516.516 0 0 0-.514-.518h-5.972A.516.516 0 0 0 18 7.76c0 .285.23.517.514.517h5.972A.516.516 0 0 0 25 7.759m-8.385 2.586c-.34 0-.615.231-.615.517 0 .286.275.517.615.517h3.77c.34 0 .615-.231.615-.517 0-.286-.275-.517-.615-.517h-3.77z"/><path d="M3.339 28.888H26.66v-9.225H3.34v9.225zm2.133-18.792h1.617l.842 8.454h-3.3l.84-8.454zm1.341-2.777l.166 1.664H5.582l.166-1.664h1.065zm5.273 2.777h1.618l.841 8.454h-3.3l.841-8.454zm1.342-2.777l.165 1.664h-1.396l.165-1.664h1.066zm6.294 8.986l4.312-1.882v4.127h-4.312v-2.245zm8.026 12.582v-9.78a.55.55 0 0 0-.543-.557H25.12v-4.97a.56.56 0 0 0-.244-.463.533.533 0 0 0-.513-.048l-5.399 2.357a.557.557 0 0 0-.33.511v2.613h-2.997L14.459 6.707a.548.548 0 0 0-.54-.5H11.87a.548.548 0 0 0-.54.5L10.152 18.55H9.023L7.845 6.707a.548.548 0 0 0-.54-.5H5.256a.548.548 0 0 0-.54.5L3.536 18.55h-.742a.55.55 0 0 0-.543.556v9.781H.544a.55.55 0 0 0-.544.557.55.55 0 0 0 .544.556h28.912a.55.55 0 0 0 .544-.556.55.55 0 0 0-.544-.557h-1.708z"/></g>
  </symbol>

  <symbol viewBox="0 0 200.000000 200.000000" id="agro">
    <g  transform="translate(0.000000,200.000000) scale(0.100000,-0.100000)"
       fill="currentColor" stroke="none">

      <path d="M251 1986 c-20 -24 -7 -149 25 -244 80 -239 290 -413 540 -447 l52
-7 35 -76 c31 -69 62 -176 69 -241 4 -32 32 -50 55 -35 10 6 30 45 44 87 46
130 53 139 134 153 147 26 251 80 361 189 63 63 90 99 123 165 44 91 75 217
69 292 l-3 43 -90 -1 c-155 -2 -293 -64 -414 -185 -117 -116 -178 -249 -188
-409 -3 -49 -13 -99 -22 -118 l-17 -32 -38 92 c-28 70 -40 115 -46 181 -16
165 -75 292 -190 408 -116 117 -246 178 -411 194 -63 6 -77 4 -88 -9z m224
-108 c82 -27 139 -62 209 -127 75 -71 131 -156 156 -239 11 -35 20 -65 20 -66
0 0 -36 33 -79 75 -84 82 -113 98 -136 79 -25 -20 -17 -48 23 -82 68 -60 134
-132 123 -136 -21 -7 -140 40 -200 78 -74 48 -131 105 -176 175 -41 63 -85
188 -85 239 l0 36 43 -6 c23 -4 69 -15 102 -26z m1195 -125 c0 -45 -27 -132
-61 -202 -46 -93 -153 -198 -249 -244 -76 -37 -160 -62 -160 -47 0 5 39 44 86
88 67 63 85 86 82 104 -2 17 -11 24 -30 26 -22 3 -43 -12 -113 -79 -77 -74
-86 -80 -80 -54 4 17 24 68 46 114 81 172 283 317 447 320 28 1 32 -2 32 -26z"/>
      <path d="M1784 838 c-16 -12 -106 -93 -201 -180 l-172 -158 -206 0 c-213 0
-245 5 -245 40 0 31 32 40 145 40 120 0 154 11 185 63 41 67 16 153 -54 187
-39 19 -61 20 -313 20 -149 0 -295 -5 -324 -10 -116 -22 -169 -59 -381 -268
-109 -108 -198 -203 -198 -212 0 -26 27 -45 50 -34 10 5 109 96 220 202 136
132 216 200 248 215 44 21 63 22 351 25 275 3 305 1 322 -14 24 -22 24 -56 1
-77 -15 -14 -40 -17 -128 -17 -118 0 -159 -14 -185 -61 -17 -32 -16 -92 1
-124 28 -51 48 -55 312 -55 l243 1 195 179 c197 182 231 204 238 153 5 -32
-344 -355 -434 -403 l-67 -35 -361 -5 c-394 -6 -401 -7 -489 -69 -72 -51 -197
-176 -197 -197 0 -23 18 -44 38 -44 8 0 49 33 91 73 160 155 143 150 591 157
l365 5 68 33 c53 26 111 74 266 217 108 102 203 196 209 210 16 35 15 70 -3
105 -31 60 -127 80 -181 38z"/>

    </g>
  </symbol>

  <symbol  viewBox="0 0 200.000000 200.000000" id="finance">
    <g transform="translate(0.000000,200.000000) scale(0.100000,-0.100000)"
       fill="currentColor" stroke="none">

      <path d="M888 1877 c-126 -48 -214 -141 -247 -265 l-12 -42 -129 0 -129 0 -3
68 -3 67 -180 0 -180 0 -3 -175 c-2 -156 -1 -176 15 -187 21 -16 305 -18 334
-3 16 9 19 22 19 75 l0 65 129 0 128 0 21 -62 21 -63 -152 -257 -152 -257 -70
-3 -70 -3 -3 -175 c-2 -156 -1 -176 15 -187 24 -18 312 -18 336 0 16 11 17 31
15 187 l-3 175 -53 3 c-29 2 -52 7 -50 11 2 4 59 101 126 214 l124 207 41 -35
c38 -33 130 -75 162 -75 13 0 15 -48 15 -335 l0 -335 -54 0 c-85 0 -86 -3 -86
-194 0 -113 4 -166 12 -174 17 -17 339 -17 356 0 14 14 17 325 3 347 -6 9 -32
16 -70 19 l-61 4 0 334 c0 286 2 334 15 334 32 0 124 42 162 75 l41 35 123
-207 c68 -113 125 -210 127 -214 2 -4 -21 -9 -50 -11 l-53 -3 -3 -175 c-2
-156 -1 -176 15 -187 24 -18 312 -18 336 0 16 11 17 31 15 187 l-3 175 -70 3
-70 3 -152 257 -152 257 21 63 21 62 128 0 129 0 0 -65 c0 -53 3 -66 19 -75
29 -15 313 -13 334 3 16 11 17 31 15 187 l-3 175 -180 0 -180 0 -3 -68 -3 -68
-132 3 -131 3 -8 38 c-19 92 -95 186 -190 237 -56 30 -73 34 -153 37 -59 2
-103 -1 -127 -10z m201 -94 c226 -72 248 -392 36 -506 -32 -17 -57 -22 -125
-22 -68 0 -93 5 -125 22 -170 91 -200 328 -57 454 74 65 172 84 271 52z m-809
-258 l0 -95 -95 0 -95 0 0 95 0 95 95 0 95 0 0 -95z m1630 0 l0 -95 -95 0 -95
0 0 95 0 95 95 0 95 0 0 -95z m-1410 -870 l0 -95 -95 0 -95 0 0 95 0 95 95 0
95 0 0 -95z m1190 0 l0 -95 -95 0 -95 0 0 95 0 95 95 0 95 0 0 -95z m-590
-360 l0 -95 -100 0 -100 0 0 95 0 95 100 0 100 0 0 -95z"/>
      <path d="M980 1730 c0 -19 -5 -30 -14 -30 -8 0 -27 -10 -42 -23 -20 -18 -27
-33 -28 -64 -1 -51 17 -73 90 -107 40 -19 55 -32 60 -52 10 -40 -27 -68 -76
-59 -19 4 -41 12 -48 17 -16 13 -21 8 -24 -22 -3 -21 3 -27 40 -38 34 -11 42
-18 42 -38 0 -17 6 -24 20 -24 16 0 20 7 20 30 0 21 5 30 16 30 8 0 29 13 45
29 22 22 29 39 29 68 0 52 -19 75 -84 106 -68 33 -85 58 -56 87 23 23 35 24
79 9 36 -13 36 -13 45 18 6 19 2 23 -33 33 -34 9 -41 15 -41 35 0 18 -5 25
-20 25 -16 0 -20 -7 -20 -30z"/>

    </g>
  </symbol>
  <symbol viewBox="0 0 200.000000 200.000000" id="it">
    <g transform="translate(0.000000,200.000000) scale(0.100000,-0.100000)"
       fill="currentColor" stroke="none">

      <path d="M539 1867 c-64 -43 -86 -127 -51 -197 21 -42 75 -80 113 -80 26 0 29
-5 78 -152 l51 -152 -29 -31 c-39 -41 -51 -67 -51 -112 0 -89 75 -157 163
-150 86 7 140 66 141 152 l1 56 189 99 189 98 28 -20 c18 -14 43 -20 76 -20
102 0 158 61 151 162 -5 64 -26 98 -80 126 -51 27 -130 14 -175 -28 l-23 -21
-261 69 c-216 57 -263 72 -269 89 -5 11 -14 35 -21 53 -28 77 -147 108 -220
59z m133 -48 c11 -6 26 -26 34 -45 12 -29 12 -39 0 -68 -17 -40 -42 -56 -86
-56 -43 0 -90 47 -90 90 0 65 82 111 142 79z m370 -215 c133 -35 243 -65 244
-67 1 -1 4 -22 5 -45 l3 -44 -189 -98 c-179 -93 -190 -97 -211 -83 -13 8 -42
21 -66 27 l-42 13 -48 143 -48 144 35 32 c19 17 35 37 35 44 0 7 8 9 20 5 12
-4 130 -36 262 -71z m457 -30 c25 -21 31 -33 31 -65 0 -59 -41 -96 -100 -90
-75 8 -105 97 -51 152 37 37 79 38 120 3z m-640 -357 c25 -21 42 -74 32 -100
-12 -30 -57 -67 -83 -67 -28 0 -76 27 -88 49 -45 84 66 178 139 118z"/>
      <path d="M156 1824 c-14 -14 -16 -78 -16 -559 l0 -544 22 -15 c19 -14 66 -16
310 -16 l288 0 0 -70 0 -70 -174 0 -174 0 -136 -142 -137 -141 3 -71 3 -71
835 -3 c459 -1 845 0 858 3 20 5 22 11 22 73 l-1 67 -122 142 -122 142 -192 1
-193 0 0 70 0 70 295 0 c282 0 296 1 315 20 19 19 20 33 20 553 0 466 -2 535
-16 555 l-15 22 -520 0 -519 0 0 -25 0 -25 503 -2 502 -3 3 -518 2 -517 -802
2 -803 3 -3 504 c-1 364 1 508 9 517 8 10 41 14 125 14 l114 0 0 25 0 25 -134
0 c-109 0 -138 -3 -150 -16z m1014 -1269 l0 -135 -175 0 -175 0 0 135 0 135
175 0 175 0 0 -135z m-410 -130 l0 -65 235 0 235 0 0 65 0 65 175 0 176 0 28
-32 c15 -18 56 -66 90 -105 l63 -73 -763 0 -764 0 105 105 105 105 157 0 158
0 0 -65z m1040 -225 c0 -20 -7 -20 -805 -20 -798 0 -805 0 -805 20 0 20 7 20
805 20 798 0 805 0 805 -20z"/>
      <path d="M240 1265 l0 -475 760 0 760 0 0 475 0 475 -385 0 -385 0 0 -25 0
-25 355 0 355 0 0 -420 0 -420 -705 0 -705 0 0 420 0 420 60 0 c57 0 60 1 60
25 0 25 -1 25 -85 25 l-85 0 0 -475z"/>
      <path d="M405 1488 l-78 -93 42 -3 41 -3 0 -260 0 -259 75 0 75 0 0 259 0 260
44 3 44 3 -75 90 c-42 50 -79 91 -83 93 -4 2 -43 -39 -85 -90z m106 -36 c-8
-3 -11 -88 -11 -268 0 -225 -2 -264 -15 -264 -12 0 -15 40 -17 269 -3 283 1
314 35 283 11 -9 14 -18 8 -20z"/>
      <path d="M1580 1070 l0 -180 30 0 30 0 0 180 0 180 -30 0 -30 0 0 -180z"/>
      <path d="M1500 1055 l0 -165 30 0 30 0 0 165 0 165 -30 0 -30 0 0 -165z"/>
      <path d="M1420 1040 l0 -150 30 0 30 0 0 150 0 150 -30 0 -30 0 0 -150z"/>
      <path d="M1340 1025 l0 -135 30 0 30 0 0 135 0 135 -30 0 -30 0 0 -135z"/>

    </g>
  </symbol>

  <symbol viewBox="0 0 30 30" id="icon-industry">
    <g fill="currentColor" fill-rule="evenodd"><path d="M28.436 6.53l-2.645 3.035-5.338 3.192a.508.508 0 0 0-.22.274l-.463 1.373-1.224-1.212v-.001l-1.81-1.793h-.001l-1.224-1.212 1.386-.458a.51.51 0 0 0 .277-.22l3.16-5.211 3.126-2.684c.87-.747 2.238-.701 3.05.102l1.814 1.797c.811.804.862 2.157.112 3.018m.612-3.735L27.234.998C26.05-.173 24.057-.242 22.789.846l-3.188 2.737a.504.504 0 0 0-.104.122l-3.103 5.12-1.993.658a.503.503 0 0 0-.2.84l5.43 5.378a.515.515 0 0 0 .849-.198l.664-1.974 5.246-3.137a.516.516 0 0 0 .123-.103l2.698-3.097c1.093-1.253 1.02-3.226-.163-4.397"/><path d="M28.134 25.283l-3.01-2.98a.516.516 0 0 0-.724 0l-2.897 2.868a.506.506 0 0 0 0 .717l3.01 2.981a4.64 4.64 0 0 1-4.158-1.25 4.533 4.533 0 0 1-1.033-4.895.504.504 0 0 0-.114-.543L7.867 10.95a.514.514 0 0 0-.55-.115 4.643 4.643 0 0 1-4.942-1.022 4.537 4.537 0 0 1-1.262-4.118l3.01 2.981c.2.198.524.198.724 0L7.744 5.81c.2-.198.2-.52 0-.718l-3.01-2.98a4.639 4.639 0 0 1 4.158 1.25 4.534 4.534 0 0 1 1.032 4.894.505.505 0 0 0 .115.544L21.38 20.03c.144.143.36.187.549.114a4.644 4.644 0 0 1 4.943 1.022 4.538 4.538 0 0 1 1.262 4.118zm-20-2.498a.508.508 0 0 0-.085.11l-1.76 3.117-2.426 1.201-1.288-1.276 1.213-2.401 3.147-1.743a.494.494 0 0 0 .112-.084l5.118-5.068 1.086 1.076-5.117 5.068zm19.462-2.337a5.674 5.674 0 0 0-5.72-1.363L10.991 8.31a5.542 5.542 0 0 0-1.376-5.666 5.675 5.675 0 0 0-6.04-1.25.504.504 0 0 0-.175.83l3.257 3.227-2.173 2.151-3.257-3.225a.516.516 0 0 0-.84.173 5.541 5.541 0 0 0 1.263 5.982 5.674 5.674 0 0 0 5.72 1.363l4.07 4.03-5.068 5.018-3.223 1.785a.51.51 0 0 0-.208.215l-1.448 2.869a.504.504 0 0 0 .096.585L3.4 28.19a.514.514 0 0 0 .591.095l2.897-1.434a.511.511 0 0 0 .218-.206l1.802-3.192 5.068-5.018 4.278 4.237a5.541 5.541 0 0 0 1.377 5.665 5.681 5.681 0 0 0 6.04 1.25.504.504 0 0 0 .175-.83l-3.257-3.227 2.173-2.15 3.257 3.225a.515.515 0 0 0 .839-.174 5.54 5.54 0 0 0-1.262-5.982z"/></g>
  </symbol>

  <symbol viewBox="0 0 30 30" id="icon-infrastructure">
    <g fill="currentColor" fill-rule="evenodd"><path d="M28.064 20.098l-7.741-3.428v-1.134h1.828l5.913 2.719v1.843zm0 2.893l-7.741-3.43v-1.836l7.741 3.428v1.838zm0 2.893l-7.741-3.43v-1.836l7.741 3.428v1.838zm0 2.892l-7.741-3.428V23.51l7.741 3.428v1.837zm-7.741.26v-2.633l5.944 2.633h-5.944zm-.968 0h-1.451V11.679h-3.389v-1.446h7.742v4.339h-2.902v14.464zm-2.42-16.392v16.392h-6.29v-.964h.485v-.964h-.485v-.965h.485v-.964h-.485v-.964h.485v-.964h-.485v-.965h.485v-.964h-.485v-.964h.485v-.965h-.485v-.964h.485v-.964H9.646a3.821 3.821 0 0 0-.938-2.061v-2.761h8.228zM9.679 29.036H1.934V18.429h.969v-.482a2.901 2.901 0 0 1 2.902-2.893 2.901 2.901 0 0 1 2.904 2.893v.482h.967v10.607zM8.297 5.894L15 1.18l6.702 4.713h-1.378v3.375H13.55v2.41H9.678V5.894h-1.38zM29.03 29.036V17.638l-5.805-2.67v-5.7H21.29v-2.41h3.46L14.998 0 5.25 6.858h3.46v4.82h-.967v2.933a3.836 3.836 0 0 0-1.452-.487v-1.48h-.968v1.48a3.868 3.868 0 0 0-3.357 3.34H.968v11.572H0V30h30v-.964h-.968z"/><path d="M2.903 24.214h5.806v-.964H2.903zm0 3.857h5.806v-.964H2.903zm0-1.928h5.806v-.964H2.903zm0-5.785h5.806v-.965H2.903zm0 1.928h5.806v-.964H2.903zm6.774-7.713h1.452v-.965H9.677zm2.42 0h1.452v-.965h-1.452zm2.419 0h1.452v-.965h-1.452zm-4.839 1.928h1.452v-.965H9.677zm2.42 0h1.452v-.965h-1.452zm2.419 0h1.452v-.965h-1.452zm-2.419 1.928h1.452v-.964h-1.452zm2.419 0h1.452v-.964h-1.452zm-2.419 1.929h1.452v-.965h-1.452zm2.419 0h1.452v-.965h-1.452zm-2.419 1.928h1.452v-.964h-1.452zm2.419 0h1.452v-.964h-1.452zm-2.419 1.928h1.452v-.964h-1.452zm2.419 0h1.452v-.964h-1.452zm-2.419 1.929h1.452v-.964h-1.452zm2.419 0h1.452v-.964h-1.452zm-2.419 1.928h1.452v-.964h-1.452zm2.419 0h1.452v-.964h-1.452z"/></g>
  </symbol>

  <symbol viewBox="0 0 30 18" id="icon-manufacture">
    <g fill="currentColor" fill-rule="evenodd"><path d="M14.59 7.66h1.459c.302 0 .547-.143.547-.32 0-.176-.245-.319-.547-.319h-1.46c-.301 0-.546.143-.546.32 0 .176.245.319.547.319m0 2.553h1.459c.302 0 .547-.143.547-.32 0-.176-.245-.319-.547-.319h-1.46c-.301 0-.546.143-.546.32 0 .176.245.319.547.319m2.006.957c0-.176-.245-.319-.547-.319h-1.46c-.301 0-.546.143-.546.32 0 .175.245.318.547.318h1.459c.302 0 .547-.143.547-.319"/><path d="M20.945 13.486v1.567h-1.851c-.32 0-.64-.01-.96-.028v-1.539h2.81zm4.683 1.567h2.81v-1.567h-2.81v1.567zm3.435 1.88H15.196l-14.035-1.69 5.897-2.959 4.35 2.015c.683.316 1.389.59 2.11.82a.469.469 0 0 0 .611-.448.468.468 0 0 0-.324-.447 17.207 17.207 0 0 1-2.005-.779l-1.667-.772A10.764 10.764 0 0 1 20.79 3.461c2.08 0 4.043.603 5.68 1.744 1.247 1.794 1.97 4.05 1.97 6.558v.783h-3.15a.598.598 0 0 0-.597.6v1.907h-2.81v-1.907a.6.6 0 0 0-.598-.6h-3.489a.598.598 0 0 0-.597.6v1.8a17.472 17.472 0 0 1-1.591-.251.47.47 0 0 0-.184.921c1.21.248 2.442.377 3.671.377h9.97v.94zM18.291.954c2.436 0 4.62.825 6.332 2.239a11.086 11.086 0 0 0-3.834-.672 11.663 11.663 0 0 0-7.837 3.019 11.74 11.74 0 0 0-3.702 6.724l-1.728-.8C7.681 5.642 12.45.954 18.291.954zm11.085 14.142v-3.333c0-3.173-1.103-6.118-3.105-8.294-2.05-2.228-4.884-3.455-7.98-3.455-6.36 0-11.55 5.113-11.706 11.457L.467 14.54a.843.843 0 0 0-.454.903.84.84 0 0 0 .731.696l14.368 1.73a.465.465 0 0 0 .056.003h13.934a.9.9 0 0 0 .898-.901v-1.017a.902.902 0 0 0-.624-.858z"/></g>
  </symbol>

  <symbol viewBox="0 0 20 20" id="icon-chemical">
    <path fill="currentColor" fill-rule="evenodd" d="M18.891 18.376c-.234.455-.703.716-1.242.716H2.34c-.54 0-1.009-.26-1.243-.716a1.175 1.175 0 0 1 .117-1.367l3.024-3.797 1.313-.412c1.759-.542 3.869-.586 5.65-.087l2.626.738c.797.217 1.617.347 2.39.369l2.556 3.167c.328.434.375.933.117 1.389zM8.014 8.504c.07-.065.094-.173.094-.26V3.471h1.781c.258 0 .47-.195.47-.434 0-.238-.212-.434-.47-.434H7.404c-.258 0-.469-.195-.469-.434v-.867c0-.239.211-.434.47-.434h5.157c.258 0 .469.195.469.434v.867a.435.435 0 0 1-.329.413l-.398.021c-.258.022-.446.196-.446.434v5.207c0 .087.024.174.094.26l3.517 4.383a10.075 10.075 0 0 1-1.36-.282l-2.626-.738c-1.969-.542-4.29-.52-6.212.087l2.743-3.45zm4.782-.412V3.45c.07 0 .094 0 .141-.021.61-.174 1.031-.673 1.031-1.259v-.867C13.968.586 13.335 0 12.562 0H7.404c-.773 0-1.406.586-1.406 1.302v.867c0 .651.515 1.172 1.172 1.28v4.643L.465 16.488c-.54.673-.61 1.54-.21 2.278.397.738 1.195 1.193 2.086 1.193h15.308c.89 0 1.688-.455 2.086-1.193a2.033 2.033 0 0 0-.21-2.278l-6.729-8.396z"/>
  </symbol>

  <symbol viewBox="0 0 20 20" id="icon-mining">
    <path fill="currentColor" fill-rule="evenodd" d="M18.942 12.605c-.993-2.338-2.485-4.562-4.39-6.534l-.033-.035a23.435 23.435 0 0 0-.531-.53l-.028-.027C11.965 3.553 9.714 2.051 7.35 1.06a10.898 10.898 0 0 1 7.238 2.22c.004.002.008.006.012.01a11.077 11.077 0 0 1 .818.688l.06.055a11.005 11.005 0 0 1 .491.491l.055.06a11.182 11.182 0 0 1 .689.818l.008.01a10.904 10.904 0 0 1 2.222 7.194M14.221 7.25l-.725.725-1.471-1.47.723-.724c.125.113.249.228.37.344l.076.072a19.787 19.787 0 0 1 .707.71c.107.113.214.227.32.343m1.48-4.422l.773-.773 1.471 1.47-.773.774-.03-.036-.084-.097a12.62 12.62 0 0 0-.208-.234l-.055-.06a11.77 11.77 0 0 0-.113-.12l-.05-.053a12.008 12.008 0 0 0-.332-.332l-.05-.048a11.723 11.723 0 0 0-.417-.378l-.097-.083-.035-.03m3.875 6.052a12.02 12.02 0 0 0-1.76-3.742l1.242-1.242a.524.524 0 0 0 0-.741L16.845.943a.525.525 0 0 0-.741 0l-1.242 1.24A12.02 12.02 0 0 0 11.094.418 12.135 12.135 0 0 0 5.07.344a.524.524 0 0 0-.021 1.013c2.43.703 4.785 1.98 6.905 3.734l-1.042 1.043a.524.524 0 0 0-.006.735L.154 17.622a.524.524 0 0 0 0 .741l1.483 1.483a.523.523 0 0 0 .741 0l5.21-5.21a.524.524 0 0 0-.742-.74l-4.838 4.838-.742-.742L11.648 7.61l.742.742-3.338 3.337a.524.524 0 0 0 .742.742l3.337-3.338a.523.523 0 0 0 .736-.006l1.045-1.045c1.75 2.105 3.03 4.445 3.743 6.861a.524.524 0 0 0 1.013-.026 12.14 12.14 0 0 0-.092-5.997"/>
  </symbol>

  <symbol viewBox="0 0 20 20" id="icon-oil">
    <path fill="currentColor" fill-rule="evenodd" d="M2.975 19.118h1.7v-.434h-1.7v.434zm1.275-7.412a1.06 1.06 0 0 0 .374-.126l2.435-1.438-1.462 8.976h-.072v-.869a.431.431 0 0 0-.425-.434h-.85v-6.11zm-.416-1.16a.245.245 0 0 1 .114-.152l9.826-5.788.276.4-9.85 5.822a.246.246 0 0 1-.34-.091.25.25 0 0 1-.026-.191zm9.353-8.677a.673.673 0 0 1 .315-.439L14.3.957a.62.62 0 0 1 .327-.092.65.65 0 0 1 .6.391l2.137 4.736a.678.678 0 0 1-.32.891.648.648 0 0 1-.81-.222l-2.937-4.266a.652.652 0 0 1-.11-.526zm-.408 4.892l1.764-1.042.998 1.45c.323.487.897.735 1.462.635v11.314h-2.205L12.779 6.761zm-2.58 9.963l3.014 2.394H7.187l3.013-2.394zm-2.97-2.36l2.274 1.808-2.954 2.347.68-4.154zm2.97 1.257l-2.162-1.717h4.321L10.2 15.621zm2.958-1.247l.676 4.136-2.94-2.338 2.264-1.798zM11.99 7.226l.952 5.81H7.45l.561-3.46 3.978-2.35zm7.56 11.892h-1.7V7.344a1.552 1.552 0 0 0 .285-1.712L15.996.896A1.495 1.495 0 0 0 14 .14c-.043.022-.085.043-.123.065l-.8.474c-.722.425-.964 1.373-.548 2.107.022.039.047.078.073.113l.68.99-9.758 5.753c-.522.309-.705.99-.403 1.53v.004c.072.121.165.226.276.313v6.326H2.55a.431.431 0 0 0-.425.434v.87H.438a.438.438 0 0 0-.433.369c-.039.269.165.5.42.5h19.111a.438.438 0 0 0 .434-.37.432.432 0 0 0-.421-.5z"/>
  </symbol>

  <symbol viewBox="0 0 35 35" id="icon-contest">
    <g fill="currentColor" fill-rule="evenodd"><path d="M33.42 22.954l-1.765 1.693-2.64-2.528 1.765-1.692a.652.652 0 0 1 .869 0l1.771 1.698c.24.227.24.603 0 .829zM21.2 30.209l2.003 1.92-2.756.719.754-2.639zm.56-1.146l6.374-6.103 2.64 2.528-6.374 6.103-2.64-2.528zm12.542-7.782l-1.775-1.695c-.702-.672-1.923-.672-2.625 0l-9.576 9.168-1.322 4.635-.322.308a.574.574 0 0 0-.003.838l-.003.011.012-.002a.638.638 0 0 0 .875-.003l.322-.312 4.84-1.262 9.577-9.17a1.731 1.731 0 0 0 0-2.516zm-29.945.167h16.175a.61.61 0 0 0 .623-.597.611.611 0 0 0-.623-.596H4.357a.611.611 0 0 0-.623.596c0 .33.28.597.623.597m13.687 2.382H4.357a.611.611 0 0 0-.623.596c0 .329.28.597.623.597h13.687a.611.611 0 0 0 .623-.597.611.611 0 0 0-.623-.596M4.357 10.723h8.087c.343 0 .623-.265.623-.594a.61.61 0 0 0-.623-.596H4.357a.609.609 0 0 0-.623.596c0 .329.28.594.623.594m8.087 17.872c.343 0 .623-.265.623-.594a.61.61 0 0 0-.623-.596H4.357a.609.609 0 0 0-.623.596c0 .329.28.594.623.594h8.087zM22.4 13.108H4.358c-.344 0-.623.264-.623.593 0 .332.28.596.623.596h18.044a.609.609 0 0 0 .623-.596c0-.329-.28-.593-.623-.593M4.357 17.872h8.71a.611.611 0 0 0 .623-.596.61.61 0 0 0-.623-.596h-8.71a.61.61 0 0 0-.623.596c0 .329.28.596.623.596m18.667-.596a.61.61 0 0 0-.623-.596h-4.357a.61.61 0 0 0-.623.596c0 .329.28.596.623.596H22.4a.611.611 0 0 0 .623-.596m-7.027.422a.607.607 0 0 0 .183-.422.604.604 0 0 0-.183-.422c-.234-.22-.653-.22-.88 0a.604.604 0 0 0-.183.422c0 .16.07.311.182.422.119.107.28.174.44.174a.663.663 0 0 0 .44-.174"/><path d="M6.845 2.979h3.111v1.193c0 .328.28.593.623.593h5.6c.343 0 .623-.265.623-.593V2.979h3.11V5.36H6.846V2.979zm4.353.596h4.358V1.193h-4.358v2.382zm4.358 29.787H1.246V4.765h4.353v1.192c0 .33.28.597.623.597h14.31a.61.61 0 0 0 .623-.597V4.765h4.357v13.107c0 .33.28.597.623.597a.608.608 0 0 0 .619-.597v-13.7a.606.606 0 0 0-.62-.597h-4.98V2.382a.61.61 0 0 0-.622-.596h-3.73V.596A.612.612 0 0 0 16.179 0h-5.6a.611.611 0 0 0-.623.596v1.19H6.222a.61.61 0 0 0-.623.596v1.193H.623A.609.609 0 0 0 0 4.172v29.787c0 .328.28.593.623.593h14.933c.343 0 .623-.265.623-.593a.61.61 0 0 0-.623-.597z"/></g>
  </symbol>

  <symbol viewBox="0 0 35 35" id="icon-presentation">
    <g fill="currentColor" fill-rule="evenodd"><path d="M1.027 7.12h32.946V5.956H1.027V7.12zM17.5 1.284l3.24 3.645h-6.48l3.24-3.645zM34.486 4.93H22.114L17.884.17a.52.52 0 0 0-.768 0l-4.23 4.76H.514A.514.514 0 0 0 0 5.442v2.192c0 .284.23.514.514.514h1.13v18.664c0 .284.23.514.514.514h14.828v5.158l-4.05 1.518a.518.518 0 0 0-.31.635c.087.277.398.43.67.327l3.69-1.383v.902a.514.514 0 1 0 1.028 0v-.902l3.69 1.383a.518.518 0 0 0 .67-.327.518.518 0 0 0-.31-.635l-4.05-1.518v-5.158H23.8a.514.514 0 1 0 0-1.027H2.671V8.148H32.33v18.15h-6.016a.514.514 0 1 0 0 1.028h6.53c.283 0 .513-.23.513-.514V8.148h1.13c.284 0 .514-.23.514-.514V5.442a.514.514 0 0 0-.514-.513z"/><path d="M17.51 18.559c-.26 2.8-2.622 5-5.49 5a5.52 5.52 0 0 1-5.513-5.514c0-2.867 2.2-5.23 5-5.49v5.49c0 .284.23.514.514.514h5.49zm-5.49-7.055a6.549 6.549 0 0 0-6.54 6.541 6.549 6.549 0 0 0 6.54 6.541 6.549 6.549 0 0 0 6.542-6.54.514.514 0 0 0-.514-.515h-5.514v-5.513a.514.514 0 0 0-.513-.514z"/><path d="M14.726 15.34v-4.977a5.523 5.523 0 0 1 4.976 4.977h-4.976zm6.027.513a6.549 6.549 0 0 0-6.54-6.54.514.514 0 0 0-.514.513v6.027c0 .284.23.514.513.514h6.028c.284 0 .513-.23.513-.514zm1.679-2.226h6.575a.514.514 0 1 0 0-1.027h-6.575a.514.514 0 1 0 0 1.027m0 3.288h6.575a.514.514 0 1 0 0-1.027h-6.575a.514.514 0 1 0 0 1.027m0 3.288h6.575a.514.514 0 1 0 0-1.028h-6.575a.514.514 0 1 0 0 1.028m0 3.287h6.575a.514.514 0 1 0 0-1.027h-6.575a.514.514 0 1 0 0 1.027"/></g>
  </symbol>
</svg>
